<?xml version="1.0" encoding="utf-8"?>
<svg version="1.0" width="912.000000pt" height="1280.000000pt" viewBox="0 0 912.000000 1280.000000" preserveAspectRatio="xMidYMid meet" xmlns="http://www.w3.org/2000/svg">
  <g transform="matrix(0.095586, 0, 0, -0.1, 0.006666, 1280)" fill="#F7EC09" stroke="none" style="">
    <path d="M4080 12789 c-610 -67 -1186 -337 -1735 -812 -141 -121 -413 -399 -536 -547 -866 -1039 -1482 -2535 -1708 -4150 -62 -447 -89 -792 -98 -1270 -19 -1103 144 -2163 473 -3056 490 -1335 1319 -2261 2277 -2544 128 -37 1575 -365 1711 -387 148 -24 521 -24 681 1 621 95 1242 418 1754 912 65 63 125 114 133 114 8 0 223 -47 478 -105 341 -77 480 -105 530 -105 184 0 364 118 507 332 218 328 304 807 218 1221 -41 200 -97 314 -269 546 l-135 184 15 36 c399 939 639 1980 726 3156 17 226 17 1046 0 1270 -89 1186 -335 2139 -766 2970 -515 992 -1249 1656 -2056 1859 -227 57 -1521 345 -1620 361 -125 19 -459 28 -580 14z m1183 -2636 c717 -625 1145 -1879 1114 -3268 -7 -299 -16 -415 -52 -710 -37 -293 -26 -278 -121 -154 -88 113 -144 165 -224 205 -75 38 -1422 344 -1542 351 -107 7 -194 -17 -288 -78 -404 -261 -609 -1026 -429 -1599 53 -169 77 -205 670 -1002 l568 -763 -42 -38 c-288 -257 -588 -432 -884 -515 l-72 -20 -73 62 c-465 399 -820 1051 -1002 1836 -400 1732 40 3795 1062 4982 325 378 730 659 1117 773 44 13 84 24 89 24 4 1 54 -38 109 -86z"/>
  </g>
  <path d="M 426.827 9.974 C 368.52 16.674 313.462 43.674 260.986 91.174 C 247.508 103.274 221.509 131.074 209.752 145.874 C 126.975 249.774 68.094 399.374 46.492 560.875 C 40.566 605.575 37.985 640.075 37.124 687.875 C 35.308 798.175 50.889 904.175 82.336 993.475 C 129.173 1126.975 208.414 1219.575 299.985 1247.875 C 312.22 1251.575 450.532 1284.375 463.532 1286.575 C 477.678 1288.975 513.332 1288.975 528.625 1286.475 C 587.984 1276.975 647.343 1244.675 696.282 1195.275 C 702.495 1188.975 708.231 1183.875 708.995 1183.875 C 709.76 1183.875 730.311 1188.575 754.685 1194.375 C 787.28 1202.075 800.566 1204.875 805.346 1204.875 C 822.933 1204.875 840.139 1193.075 853.807 1171.675 C 874.645 1138.875 882.865 1090.975 874.645 1049.575 C 870.726 1029.575 865.373 1018.175 848.933 994.975 L 836.028 976.575 L 837.462 972.975 C 875.601 879.075 898.541 774.975 906.857 657.375 C 908.482 634.775 908.482 552.775 906.857 530.375 C 898.35 411.774 874.836 316.474 833.64 233.374 C 784.412 134.174 714.252 67.774 637.115 47.474 C 615.417 41.774 491.729 12.974 482.266 11.374 C 470.318 9.474 438.393 8.574 426.827 9.974 Z M 539.904 273.574 C 608.439 336.074 649.35 461.474 646.388 600.375 C 645.718 630.275 644.857 641.875 641.416 671.375 C 637.88 700.675 638.931 699.175 629.85 686.775 C 621.439 675.475 616.086 670.275 608.439 666.275 C 601.27 662.475 472.517 631.875 461.046 631.175 C 450.819 630.475 442.503 632.875 433.518 638.975 C 394.901 665.075 375.306 741.575 392.512 798.875 C 397.578 815.775 399.872 819.375 456.554 899.075 L 510.846 975.375 L 506.832 979.175 C 479.303 1004.875 450.628 1022.375 422.334 1030.675 L 415.452 1032.675 L 408.474 1026.475 C 364.027 986.575 330.094 921.375 312.698 842.875 C 274.463 669.675 316.521 463.374 414.209 344.674 C 445.275 306.874 483.987 278.774 520.978 267.374 C 525.184 266.074 529.008 264.974 529.486 264.974 C 529.868 264.874 534.647 268.774 539.904 273.574 Z" style="fill: rgb(17, 69, 254);"/>
</svg>